# xmcd
#
# Track frame offsets:
#	150
#	9376
#	23375
#	34583
#	46664
#	56101
#	67709
#	77233
#	88198
#	102463
#	113594
#	126543
#	137875
#	149901
#	164365
#	177467
#	189392
#	201135
#	211181
#	221454
#
# Disc length: 3073 seconds
#
# Revision: 1
# Processed by: cddbd v1.5.2PL0 Copyright (c) Steve Scherf et al.
# Submitted via: audiograbber 1.83.01
#
DISCID=1c0bff14
DTITLE=DIVERS - COUNTRY
DYEAR=2011
DGENRE=Country
TTITLE0=ELVIS PRESLEY - I'M GONNA SIT RIGHT DOWN AND CRY OVER YOU
TTITLE1=TEX  RITTER - CONVERSATION WITH A GUN
TTITLE2=CARL SMITH - HEY JOE
TTITLE3=JOHNNY CASH  - I WALK THE LINE
TTITLE4=LES PAUL and MARY FORD - HOW  HIGH THE MOON
TTITLE5=TENNESSE ERNIE FORD - SIXTEEEN TONS
TTITLE6=BRENDA LEE - JAMBALAYA
TTITLE7=CONWAY TWITTY - IT'S ONLY MAKE BELIEVE
TTITLE8=RED FOLEY - (THERE WILL BE) PEACE IN THE VALLEY
TTITLE9=KITTY  WELLS - IT WAS NOT GOD WHO MADEHONKY TONK ANGELS
TTITLE10=JERRY LEE LEWIS - GOODNIGHT IRENE
TTITLE11=EDDY ARNOLD - KENTUCKY WALTZ
TTITLE12=HANK WILLIAMS - YOUR CHEATING HEART
TTITLE13=PORTER WAGONER - GREEN GREEN GRASS OF HOME
TTITLE14=VAUGN MONROE - RIDERS IN THE SKY
TTITLE15=JIMMY HEAP and THE MELODY MAKERS - RELEASE ME
TTITLE16=JIM REEVES - MEXICAN JOE
TTITLE17=FARON YOUNG - LIVE FAST,LOVE HARD,DIE YOUNG
TTITLE18=PATSY CLINE - THREE CIGARETTES IN AN ASHTRAY
TTITLE19=FRANKIE LAINE - RAWHIDE
EXTD=
EXTT0=
EXTT1=
EXTT2=
EXTT3=
EXTT4=
EXTT5=
EXTT6=
EXTT7=
EXTT8=
EXTT9=
EXTT10=
EXTT11=
EXTT12=
EXTT13=
EXTT14=
EXTT15=
EXTT16=
EXTT17=
EXTT18=
EXTT19=
PLAYORDER=
